<svg xmlns="http://www.w3.org/2000/svg" xmlns:xlink="http://www.w3.org/1999/xlink" version="1.1" id="Calque_1" x="0px" y="0px" width="100px" height="100px" viewBox="0 0 100 100" enable-background="new 0 0 100 100" xml:space="preserve">
<path fill="#000000" stroke="#3676BB" stroke-width="1.1096" d="M50.027,33.222"/>
<path d="M50.569,89.891c-0.212,0.002-0.421,0.016-0.634,0.016c-0.216,0-0.43-0.014-0.646-0.018  c-0.383,0.443-0.855,0.807-1.388,1.064c0.674,0.031,1.352,0.051,2.033,0.051c0.679,0,1.352-0.02,2.022-0.051  C51.424,90.695,50.952,90.332,50.569,89.891z"/>
<path d="M49.935,5.699c-23.8,0-43.163,19.133-43.163,42.651c0,21.355,15.966,39.093,36.722,42.177  c-0.473-0.352-0.864-0.797-1.159-1.309c-3.684-0.668-7.203-1.797-10.485-3.346c1.069-0.037,2.094-0.602,2.66-1.6l7.24-12.748  l0.001-12.891L28.971,81.129c-0.607,1.07-0.514,2.34,0.114,3.307C16.421,77.273,7.881,63.801,7.881,48.35  c0-9.677,3.357-18.574,8.972-25.638c-0.209,0.937,0.188,2.028,1.497,2.646l14.35,6.755h10.508L20.259,21.307  c-0.815-0.385-1.544-0.372-2.124-0.132c7.711-8.803,19.093-14.38,31.8-14.38c12.709,0,24.09,5.577,31.801,14.38  c-0.58-0.24-1.309-0.253-2.123,0.132L56.664,32.113H67.17l14.35-6.755c1.311-0.617,1.707-1.709,1.498-2.646  c5.613,7.063,8.971,15.961,8.971,25.639c0,15.453-8.541,28.925-21.205,36.085c0.627-0.967,0.721-2.236,0.113-3.307L58.117,58.631  l-0.004,12.885l7.246,12.758c0.568,0.998,1.594,1.562,2.664,1.6c-3.287,1.551-6.814,2.684-10.504,3.348  c-0.295,0.514-0.688,0.957-1.158,1.309c20.762-3.076,36.736-20.818,36.736-42.179C93.098,24.832,73.736,5.699,49.935,5.699z"/>
<path d="M84.672,20.166H15.201h-1.109v1.096v68.645v1.098h1.109h69.471h1.109v-1.098V21.261v-1.096H84.672z M52.365,89.906h-4.874  c1.024-0.529,1.73-1.586,1.73-2.816l0.005-26.701h1.415L50.635,87.09C50.635,88.32,51.342,89.377,52.365,89.906z M84.672,89.906  H55.27c1.023-0.529,1.729-1.586,1.729-2.816l0.016-49.392h25.094c3.387,0,3.387-4.476,0-4.476h-64.36c-3.388,0-3.388,4.476,0,4.476  h25.115L42.857,87.09c0,1.23,0.708,2.287,1.73,2.816H15.201V21.261h32.292c-1.908,0.915-3.235,2.848-3.235,5.104  c0,3.136,2.542,5.678,5.678,5.678c3.137,0,5.678-2.542,5.678-5.678c0-2.257-1.326-4.189-3.234-5.104h32.293V89.906z"/>
</svg>